<mxfile host="app.diagrams.net" modified="2020-11-15T22:08:23.233Z" agent="5.0 (Windows)" etag="vTV71gheyjfdBUi4iUAG" version="13.9.8" type="github" pages="3">
  <diagram id="OXSFSuDFRPRb5TJoj2du" name="Page-1">
    <mxGraphModel dx="1216" dy="1756" grid="1" gridSize="10" guides="1" tooltips="1" connect="1" arrows="1" fold="1" page="1" pageScale="1" pageWidth="827" pageHeight="1169" math="0" shadow="0">
      <root>
        <mxCell id="0" />
        <mxCell id="1" parent="0" />
        <mxCell id="Zxtm8UmjWwIu1WwOdkux-5" value="" style="edgeStyle=orthogonalEdgeStyle;rounded=0;orthogonalLoop=1;jettySize=auto;html=1;entryX=0.5;entryY=0;entryDx=0;entryDy=0;" parent="1" source="Zxtm8UmjWwIu1WwOdkux-1" target="Zxtm8UmjWwIu1WwOdkux-26" edge="1">
          <mxGeometry relative="1" as="geometry">
            <mxPoint x="400" y="-870" as="targetPoint" />
          </mxGeometry>
        </mxCell>
        <mxCell id="Zxtm8UmjWwIu1WwOdkux-1" value="&lt;br&gt;&lt;br&gt;&lt;br&gt;&lt;br&gt;&lt;br&gt;&lt;br&gt;&lt;br&gt;&lt;br&gt;&lt;br&gt;&lt;br&gt;&lt;br&gt;&lt;br&gt;&lt;br&gt;&lt;br&gt;&lt;br&gt;&lt;br&gt;&lt;br&gt;&lt;br&gt;&lt;span style=&quot;font-size: 11.0pt ; line-height: 107% ; font-family: &amp;#34;calibri&amp;#34; , sans-serif&quot;&gt;&lt;/span&gt;&lt;br&gt;&lt;br&gt;&lt;br&gt;" style="rounded=1;whiteSpace=wrap;html=1;" parent="1" vertex="1">
          <mxGeometry x="300" y="-987" width="200" height="60" as="geometry" />
        </mxCell>
        <mxCell id="Zxtm8UmjWwIu1WwOdkux-3" value="" style="edgeStyle=orthogonalEdgeStyle;rounded=0;orthogonalLoop=1;jettySize=auto;html=1;" parent="1" source="Zxtm8UmjWwIu1WwOdkux-2" target="Zxtm8UmjWwIu1WwOdkux-1" edge="1">
          <mxGeometry relative="1" as="geometry" />
        </mxCell>
        <mxCell id="Zxtm8UmjWwIu1WwOdkux-2" value="" style="ellipse;whiteSpace=wrap;html=1;aspect=fixed;" parent="1" vertex="1">
          <mxGeometry x="360" y="-1090" width="80" height="80" as="geometry" />
        </mxCell>
        <mxCell id="Zxtm8UmjWwIu1WwOdkux-6" value="&lt;span&gt;Менеджервыбирает функцию «Создать нового партнера»&lt;/span&gt;" style="text;html=1;strokeColor=none;fillColor=none;align=center;verticalAlign=middle;whiteSpace=wrap;rounded=0;" parent="1" vertex="1">
          <mxGeometry x="327" y="-977" width="146" height="40" as="geometry" />
        </mxCell>
        <mxCell id="Zxtm8UmjWwIu1WwOdkux-10" value="" style="edgeStyle=orthogonalEdgeStyle;rounded=0;orthogonalLoop=1;jettySize=auto;html=1;" parent="1" source="Zxtm8UmjWwIu1WwOdkux-7" target="Zxtm8UmjWwIu1WwOdkux-8" edge="1">
          <mxGeometry relative="1" as="geometry" />
        </mxCell>
        <mxCell id="Zxtm8UmjWwIu1WwOdkux-7" value="&lt;p&gt;&lt;span&gt;&lt;span&gt;&lt;/span&gt;&lt;/span&gt;&lt;span&gt;Система отображаает форму карточки партнера с полями для заполнения реквизитов партнера.&lt;/span&gt;&lt;/p&gt;" style="rounded=1;whiteSpace=wrap;html=1;" parent="1" vertex="1">
          <mxGeometry x="300" y="-860" width="200" height="50" as="geometry" />
        </mxCell>
        <mxCell id="Zxtm8UmjWwIu1WwOdkux-12" value="" style="edgeStyle=orthogonalEdgeStyle;rounded=0;orthogonalLoop=1;jettySize=auto;html=1;" parent="1" source="Zxtm8UmjWwIu1WwOdkux-8" target="Zxtm8UmjWwIu1WwOdkux-11" edge="1">
          <mxGeometry relative="1" as="geometry" />
        </mxCell>
        <mxCell id="Zxtm8UmjWwIu1WwOdkux-8" value="&lt;p&gt;&lt;span&gt;&lt;span&gt;&lt;/span&gt;&lt;/span&gt;&lt;span&gt;Менеджер заполняет необходимые поля.&lt;/span&gt;&lt;/p&gt;" style="rounded=1;whiteSpace=wrap;html=1;" parent="1" vertex="1">
          <mxGeometry x="300" y="-780" width="200" height="50" as="geometry" />
        </mxCell>
        <mxCell id="Zxtm8UmjWwIu1WwOdkux-14" value="" style="edgeStyle=orthogonalEdgeStyle;rounded=0;orthogonalLoop=1;jettySize=auto;html=1;" parent="1" source="Zxtm8UmjWwIu1WwOdkux-11" target="Zxtm8UmjWwIu1WwOdkux-13" edge="1">
          <mxGeometry relative="1" as="geometry" />
        </mxCell>
        <mxCell id="Zxtm8UmjWwIu1WwOdkux-11" value="&lt;p&gt;&lt;span&gt;&lt;span&gt;&lt;/span&gt;&lt;/span&gt;&lt;span&gt;Менеджеринициирует сохранение карточки партнера&lt;/span&gt;&lt;/p&gt;" style="rounded=1;whiteSpace=wrap;html=1;" parent="1" vertex="1">
          <mxGeometry x="300" y="-700" width="200" height="50" as="geometry" />
        </mxCell>
        <mxCell id="Zxtm8UmjWwIu1WwOdkux-16" value="" style="edgeStyle=orthogonalEdgeStyle;rounded=0;orthogonalLoop=1;jettySize=auto;html=1;" parent="1" source="Zxtm8UmjWwIu1WwOdkux-13" target="Zxtm8UmjWwIu1WwOdkux-15" edge="1">
          <mxGeometry relative="1" as="geometry" />
        </mxCell>
        <mxCell id="Zxtm8UmjWwIu1WwOdkux-13" value="&lt;span&gt;Система проверяет корректность заполнения карточки партнера &lt;/span&gt;" style="rounded=1;whiteSpace=wrap;html=1;" parent="1" vertex="1">
          <mxGeometry x="300" y="-620" width="200" height="50" as="geometry" />
        </mxCell>
        <mxCell id="Zxtm8UmjWwIu1WwOdkux-19" style="edgeStyle=orthogonalEdgeStyle;rounded=0;orthogonalLoop=1;jettySize=auto;html=1;entryX=0.5;entryY=0;entryDx=0;entryDy=0;" parent="1" source="Zxtm8UmjWwIu1WwOdkux-15" target="Zxtm8UmjWwIu1WwOdkux-18" edge="1">
          <mxGeometry relative="1" as="geometry" />
        </mxCell>
        <mxCell id="Zxtm8UmjWwIu1WwOdkux-24" value="&lt;font style=&quot;font-size: 8px&quot;&gt;&lt;span&gt;если заполнено некорректно&lt;/span&gt;&lt;/font&gt;" style="edgeLabel;html=1;align=center;verticalAlign=middle;resizable=0;points=[];" parent="Zxtm8UmjWwIu1WwOdkux-19" vertex="1" connectable="0">
          <mxGeometry x="-0.0448" relative="1" as="geometry">
            <mxPoint x="11" as="offset" />
          </mxGeometry>
        </mxCell>
        <mxCell id="Zxtm8UmjWwIu1WwOdkux-15" value="" style="rhombus;whiteSpace=wrap;html=1;" parent="1" vertex="1">
          <mxGeometry x="375" y="-544" width="50" height="50" as="geometry" />
        </mxCell>
        <mxCell id="Zxtm8UmjWwIu1WwOdkux-31" value="" style="edgeStyle=orthogonalEdgeStyle;rounded=0;orthogonalLoop=1;jettySize=auto;html=1;" parent="1" source="Zxtm8UmjWwIu1WwOdkux-17" target="Zxtm8UmjWwIu1WwOdkux-30" edge="1">
          <mxGeometry relative="1" as="geometry" />
        </mxCell>
        <mxCell id="Zxtm8UmjWwIu1WwOdkux-17" value="&lt;span&gt;Система сохраняет карточку партнера&lt;/span&gt;" style="rounded=1;whiteSpace=wrap;html=1;" parent="1" vertex="1">
          <mxGeometry x="240" y="-470" width="120" height="60" as="geometry" />
        </mxCell>
        <mxCell id="Zxtm8UmjWwIu1WwOdkux-29" style="edgeStyle=orthogonalEdgeStyle;rounded=0;orthogonalLoop=1;jettySize=auto;html=1;entryX=1;entryY=0.5;entryDx=0;entryDy=0;" parent="1" source="Zxtm8UmjWwIu1WwOdkux-18" target="Zxtm8UmjWwIu1WwOdkux-26" edge="1">
          <mxGeometry relative="1" as="geometry">
            <Array as="points">
              <mxPoint x="590" y="-440" />
              <mxPoint x="590" y="-893" />
            </Array>
          </mxGeometry>
        </mxCell>
        <mxCell id="Zxtm8UmjWwIu1WwOdkux-18" value="&lt;span&gt;Системавыводит сообщение «Не верные данные в поле ххх»&lt;/span&gt;" style="rounded=1;whiteSpace=wrap;html=1;" parent="1" vertex="1">
          <mxGeometry x="440" y="-470" width="120" height="60" as="geometry" />
        </mxCell>
        <mxCell id="Zxtm8UmjWwIu1WwOdkux-22" style="edgeStyle=orthogonalEdgeStyle;rounded=0;orthogonalLoop=1;jettySize=auto;html=1;entryX=0.5;entryY=0;entryDx=0;entryDy=0;" parent="1" source="Zxtm8UmjWwIu1WwOdkux-15" target="Zxtm8UmjWwIu1WwOdkux-17" edge="1">
          <mxGeometry relative="1" as="geometry">
            <mxPoint x="375" y="-519" as="sourcePoint" />
            <mxPoint x="290" y="-494" as="targetPoint" />
          </mxGeometry>
        </mxCell>
        <mxCell id="Zxtm8UmjWwIu1WwOdkux-25" value="&lt;font style=&quot;font-size: 8px&quot;&gt;&lt;span&gt;если заполнено корректно&lt;/span&gt;&lt;/font&gt;" style="edgeLabel;html=1;align=center;verticalAlign=middle;resizable=0;points=[];" parent="Zxtm8UmjWwIu1WwOdkux-22" vertex="1" connectable="0">
          <mxGeometry y="-1" relative="1" as="geometry">
            <mxPoint as="offset" />
          </mxGeometry>
        </mxCell>
        <mxCell id="Zxtm8UmjWwIu1WwOdkux-28" value="" style="edgeStyle=orthogonalEdgeStyle;rounded=0;orthogonalLoop=1;jettySize=auto;html=1;" parent="1" source="Zxtm8UmjWwIu1WwOdkux-26" target="Zxtm8UmjWwIu1WwOdkux-7" edge="1">
          <mxGeometry relative="1" as="geometry" />
        </mxCell>
        <mxCell id="Zxtm8UmjWwIu1WwOdkux-26" value="" style="rhombus;whiteSpace=wrap;html=1;" parent="1" vertex="1">
          <mxGeometry x="520" y="-918" width="50" height="50" as="geometry" />
        </mxCell>
        <mxCell id="Zxtm8UmjWwIu1WwOdkux-30" value="" style="ellipse;html=1;shape=endState;fillColor=#000000;strokeColor=#000000;" parent="1" vertex="1">
          <mxGeometry x="285" y="-370" width="30" height="30" as="geometry" />
        </mxCell>
      </root>
    </mxGraphModel>
  </diagram>
  <diagram id="GpLYZG3z-ocb1kUWFQhP" name="Зарегистрировать покупку шин Nokian на портале поставщика шин">
    <mxGraphModel dx="1013" dy="489" grid="1" gridSize="10" guides="1" tooltips="1" connect="1" arrows="1" fold="1" page="1" pageScale="1" pageWidth="827" pageHeight="1169" math="0" shadow="0">
      <root>
        <mxCell id="Suz31Z7P9t03JMRxkVpI-0" />
        <mxCell id="Suz31Z7P9t03JMRxkVpI-1" parent="Suz31Z7P9t03JMRxkVpI-0" />
        <mxCell id="Suz31Z7P9t03JMRxkVpI-2" value="Пользователь" style="shape=umlLifeline;perimeter=lifelinePerimeter;whiteSpace=wrap;html=1;container=1;collapsible=0;recursiveResize=0;outlineConnect=0;" parent="Suz31Z7P9t03JMRxkVpI-1" vertex="1">
          <mxGeometry x="41" y="40" width="100" height="400" as="geometry" />
        </mxCell>
        <mxCell id="pmki0bHwHVjzACw_J8O0-8" value="" style="html=1;points=[];perimeter=orthogonalPerimeter;" vertex="1" parent="Suz31Z7P9t03JMRxkVpI-2">
          <mxGeometry x="45" y="69" width="10" height="164" as="geometry" />
        </mxCell>
        <mxCell id="pmki0bHwHVjzACw_J8O0-50" value="" style="html=1;points=[];perimeter=orthogonalPerimeter;" vertex="1" parent="Suz31Z7P9t03JMRxkVpI-2">
          <mxGeometry x="45" y="370" width="10" height="30" as="geometry" />
        </mxCell>
        <mxCell id="pmki0bHwHVjzACw_J8O0-0" value="Портал производителя" style="shape=umlLifeline;perimeter=lifelinePerimeter;whiteSpace=wrap;html=1;container=1;collapsible=0;recursiveResize=0;outlineConnect=0;" vertex="1" parent="Suz31Z7P9t03JMRxkVpI-1">
          <mxGeometry x="640" y="40" width="100" height="400" as="geometry" />
        </mxCell>
        <mxCell id="pmki0bHwHVjzACw_J8O0-1" value="Система" style="shape=umlLifeline;perimeter=lifelinePerimeter;whiteSpace=wrap;html=1;container=1;collapsible=0;recursiveResize=0;outlineConnect=0;" vertex="1" parent="Suz31Z7P9t03JMRxkVpI-1">
          <mxGeometry x="278" y="40" width="100" height="400" as="geometry" />
        </mxCell>
        <mxCell id="Suz31Z7P9t03JMRxkVpI-4" value="" style="html=1;points=[];perimeter=orthogonalPerimeter;" parent="pmki0bHwHVjzACw_J8O0-1" vertex="1">
          <mxGeometry x="45" y="49" width="10" height="51" as="geometry" />
        </mxCell>
        <mxCell id="pmki0bHwHVjzACw_J8O0-42" value="" style="html=1;points=[];perimeter=orthogonalPerimeter;" vertex="1" parent="pmki0bHwHVjzACw_J8O0-1">
          <mxGeometry x="45" y="290" width="10" height="110" as="geometry" />
        </mxCell>
        <mxCell id="pmki0bHwHVjzACw_J8O0-9" value="&lt;font style=&quot;font-size: 10px&quot;&gt;&lt;span&gt;проверяет соответствие покупки &lt;/span&gt;&lt;/font&gt;" style="edgeStyle=orthogonalEdgeStyle;html=1;align=left;spacingLeft=2;endArrow=block;rounded=0;entryX=1;entryY=0;" edge="1" parent="Suz31Z7P9t03JMRxkVpI-1">
          <mxGeometry relative="1" as="geometry">
            <mxPoint x="100" y="122" as="sourcePoint" />
            <Array as="points">
              <mxPoint x="125" y="122" />
            </Array>
            <mxPoint x="98" y="142" as="targetPoint" />
          </mxGeometry>
        </mxCell>
        <mxCell id="pmki0bHwHVjzACw_J8O0-10" value="Покупатель" style="shape=umlLifeline;perimeter=lifelinePerimeter;whiteSpace=wrap;html=1;container=1;collapsible=0;recursiveResize=0;outlineConnect=0;" vertex="1" parent="Suz31Z7P9t03JMRxkVpI-1">
          <mxGeometry x="461" y="40" width="100" height="400" as="geometry" />
        </mxCell>
        <mxCell id="pmki0bHwHVjzACw_J8O0-14" value="" style="html=1;points=[];perimeter=orthogonalPerimeter;" vertex="1" parent="pmki0bHwHVjzACw_J8O0-10">
          <mxGeometry x="46" y="125" width="10" height="45" as="geometry" />
        </mxCell>
        <mxCell id="pmki0bHwHVjzACw_J8O0-13" value="&lt;font style=&quot;font-size: 10px&quot;&gt;отправляет реквизиты талона на гарантию&amp;nbsp;&amp;nbsp;&amp;nbsp;&amp;nbsp;&amp;nbsp;&amp;nbsp;&amp;nbsp;&amp;nbsp;&amp;nbsp;&amp;nbsp;&amp;nbsp;&amp;nbsp;&amp;nbsp;&amp;nbsp;&amp;nbsp;&amp;nbsp;&amp;nbsp;&amp;nbsp;&amp;nbsp;&amp;nbsp;&amp;nbsp;&amp;nbsp;&amp;nbsp;&amp;nbsp;&amp;nbsp;&amp;nbsp;&amp;nbsp;&amp;nbsp; &lt;/font&gt;" style="html=1;verticalAlign=bottom;endArrow=open;dashed=1;endSize=8;" edge="1" parent="Suz31Z7P9t03JMRxkVpI-1">
          <mxGeometry relative="1" as="geometry">
            <mxPoint x="334.2638095238095" y="334" as="targetPoint" />
            <mxPoint x="680" y="334" as="sourcePoint" />
            <Array as="points">
              <mxPoint x="586.24" y="334" />
              <mxPoint x="436.24" y="334" />
            </Array>
          </mxGeometry>
        </mxCell>
        <mxCell id="pmki0bHwHVjzACw_J8O0-15" value="&lt;font style=&quot;font-size: 10px&quot;&gt;спрашивает номер телефона&lt;/font&gt;" style="html=1;verticalAlign=bottom;endArrow=block;" edge="1" parent="Suz31Z7P9t03JMRxkVpI-1">
          <mxGeometry relative="1" as="geometry">
            <mxPoint x="97" y="168" as="sourcePoint" />
            <mxPoint x="507" y="168" as="targetPoint" />
          </mxGeometry>
        </mxCell>
        <mxCell id="pmki0bHwHVjzACw_J8O0-16" value="&lt;font style=&quot;font-size: 10px&quot;&gt;называет номер телефона&lt;/font&gt;" style="html=1;verticalAlign=bottom;endArrow=open;dashed=1;endSize=8;" edge="1" parent="Suz31Z7P9t03JMRxkVpI-1">
          <mxGeometry relative="1" as="geometry">
            <mxPoint x="98" y="200" as="targetPoint" />
            <mxPoint x="500" y="200" as="sourcePoint" />
            <Array as="points">
              <mxPoint x="378" y="200" />
            </Array>
          </mxGeometry>
        </mxCell>
        <mxCell id="pmki0bHwHVjzACw_J8O0-17" value="" style="html=1;points=[];perimeter=orthogonalPerimeter;" vertex="1" parent="Suz31Z7P9t03JMRxkVpI-1">
          <mxGeometry x="323" y="214" width="10" height="66" as="geometry" />
        </mxCell>
        <mxCell id="pmki0bHwHVjzACw_J8O0-20" value="" style="endArrow=open;endFill=1;endSize=12;html=1;entryX=-0.3;entryY=0.242;entryDx=0;entryDy=0;entryPerimeter=0;exitX=1.024;exitY=0.744;exitDx=0;exitDy=0;exitPerimeter=0;" edge="1" parent="Suz31Z7P9t03JMRxkVpI-1">
          <mxGeometry width="160" relative="1" as="geometry">
            <mxPoint x="98.2399999999999" y="230.01600000000002" as="sourcePoint" />
            <mxPoint x="322" y="228.97199999999998" as="targetPoint" />
          </mxGeometry>
        </mxCell>
        <mxCell id="pmki0bHwHVjzACw_J8O0-21" value="&lt;font style=&quot;font-size: 10px&quot;&gt;вводит номер телефона в окно&lt;br&gt;&lt;/font&gt;" style="text;html=1;align=center;verticalAlign=middle;resizable=0;points=[];autosize=1;" vertex="1" parent="Suz31Z7P9t03JMRxkVpI-1">
          <mxGeometry x="120" y="210" width="160" height="20" as="geometry" />
        </mxCell>
        <mxCell id="pmki0bHwHVjzACw_J8O0-23" value="&lt;div&gt;&lt;font style=&quot;font-size: 10px&quot;&gt;&lt;span&gt;выводит окно &lt;br&gt;&lt;/span&gt;&lt;/font&gt;&lt;/div&gt;&lt;div&gt;&lt;font style=&quot;font-size: 10px&quot;&gt;&lt;span&gt;предложения &lt;br&gt;&lt;/span&gt;&lt;/font&gt;&lt;/div&gt;&lt;div&gt;&lt;font style=&quot;font-size: 10px&quot;&gt;&lt;span&gt;зарегистрировать &lt;br&gt;&lt;/span&gt;&lt;/font&gt;&lt;/div&gt;&lt;div&gt;&lt;font style=&quot;font-size: 10px&quot;&gt;&lt;span&gt;покупку &lt;/span&gt;&lt;/font&gt;&lt;/div&gt;" style="text;html=1;align=center;verticalAlign=middle;resizable=0;points=[];autosize=1;" vertex="1" parent="Suz31Z7P9t03JMRxkVpI-1">
          <mxGeometry x="160" y="45" width="100" height="70" as="geometry" />
        </mxCell>
        <mxCell id="pmki0bHwHVjzACw_J8O0-29" value="&lt;font style=&quot;font-size: 10px&quot;&gt;&lt;span&gt;отправляет запрос на регистрацию покупки &lt;/span&gt;&lt;/font&gt;" style="html=1;verticalAlign=bottom;endArrow=block;entryX=0;entryY=0;" edge="1" target="pmki0bHwHVjzACw_J8O0-28" parent="Suz31Z7P9t03JMRxkVpI-1" source="pmki0bHwHVjzACw_J8O0-17">
          <mxGeometry relative="1" as="geometry">
            <mxPoint x="326.25" y="260.0000000000001" as="sourcePoint" />
          </mxGeometry>
        </mxCell>
        <mxCell id="pmki0bHwHVjzACw_J8O0-28" value="" style="html=1;points=[];perimeter=orthogonalPerimeter;" vertex="1" parent="Suz31Z7P9t03JMRxkVpI-1">
          <mxGeometry x="685" y="275" width="10" height="80" as="geometry" />
        </mxCell>
        <mxCell id="pmki0bHwHVjzACw_J8O0-32" value="" style="endArrow=block;endFill=1;html=1;edgeStyle=orthogonalEdgeStyle;align=left;verticalAlign=top;exitX=0.133;exitY=0.486;exitDx=0;exitDy=0;exitPerimeter=0;" edge="1" parent="Suz31Z7P9t03JMRxkVpI-1">
          <mxGeometry x="-1" relative="1" as="geometry">
            <mxPoint x="321.3299999999999" y="113.786" as="sourcePoint" />
            <mxPoint x="97" y="113" as="targetPoint" />
            <Array as="points">
              <mxPoint x="317" y="114" />
            </Array>
          </mxGeometry>
        </mxCell>
        <mxCell id="pmki0bHwHVjzACw_J8O0-40" value="" style="edgeStyle=orthogonalEdgeStyle;html=1;align=left;spacingLeft=2;endArrow=block;rounded=0;" edge="1" parent="Suz31Z7P9t03JMRxkVpI-1">
          <mxGeometry relative="1" as="geometry">
            <mxPoint x="685" y="280" as="sourcePoint" />
            <Array as="points">
              <mxPoint x="665" y="280" />
              <mxPoint x="665" y="320" />
              <mxPoint x="685" y="320" />
            </Array>
            <mxPoint x="685" y="320" as="targetPoint" />
          </mxGeometry>
        </mxCell>
        <mxCell id="pmki0bHwHVjzACw_J8O0-41" value="&lt;div&gt;&lt;font style=&quot;font-size: 10px&quot;&gt;проверяет правильность&lt;/font&gt;&lt;/div&gt;&lt;div&gt;&lt;font style=&quot;font-size: 10px&quot;&gt; реквизитов покупателя&lt;/font&gt;&lt;/div&gt;&lt;div&gt;&lt;font style=&quot;font-size: 10px&quot;&gt; и артикулы шин&lt;/font&gt;&lt;/div&gt;" style="text;html=1;align=center;verticalAlign=middle;resizable=0;points=[];autosize=1;" vertex="1" parent="Suz31Z7P9t03JMRxkVpI-1">
          <mxGeometry x="538" y="273" width="130" height="50" as="geometry" />
        </mxCell>
        <mxCell id="pmki0bHwHVjzACw_J8O0-43" value="name" style="endArrow=block;endFill=1;html=1;edgeStyle=orthogonalEdgeStyle;align=left;verticalAlign=top;" edge="1" parent="Suz31Z7P9t03JMRxkVpI-1">
          <mxGeometry x="-1" relative="1" as="geometry">
            <mxPoint x="97" y="264" as="sourcePoint" />
            <mxPoint x="322" y="264" as="targetPoint" />
          </mxGeometry>
        </mxCell>
        <mxCell id="pmki0bHwHVjzACw_J8O0-44" value="&lt;font style=&quot;font-size: 10px&quot;&gt;&lt;span&gt;&amp;nbsp;инициирует запрос на регистрацию покупки &lt;/span&gt;&lt;/font&gt;" style="edgeLabel;resizable=0;html=1;align=left;verticalAlign=bottom;" connectable="0" vertex="1" parent="pmki0bHwHVjzACw_J8O0-43">
          <mxGeometry x="-1" relative="1" as="geometry" />
        </mxCell>
        <mxCell id="pmki0bHwHVjzACw_J8O0-51" value="&lt;div&gt;&lt;font style=&quot;font-size: 10px&quot;&gt;сообщение &quot;Регистрация &lt;br&gt;&lt;/font&gt;&lt;/div&gt;&lt;div&gt;&lt;font style=&quot;font-size: 10px&quot;&gt;дополнительной гарантии завершена &quot;&lt;/font&gt;&lt;/div&gt;" style="html=1;verticalAlign=bottom;endArrow=block;entryX=1;entryY=0;" edge="1" parent="Suz31Z7P9t03JMRxkVpI-1">
          <mxGeometry relative="1" as="geometry">
            <mxPoint x="321" y="410" as="sourcePoint" />
            <mxPoint x="97" y="410" as="targetPoint" />
          </mxGeometry>
        </mxCell>
        <mxCell id="pmki0bHwHVjzACw_J8O0-52" value="&lt;font style=&quot;font-size: 10px&quot;&gt;подтверждает ознакомление с сообщением&lt;/font&gt;" style="html=1;verticalAlign=bottom;endArrow=open;dashed=1;endSize=8;" edge="1" parent="Suz31Z7P9t03JMRxkVpI-1">
          <mxGeometry x="-0.0022" relative="1" as="geometry">
            <mxPoint x="322.5" y="439.65" as="targetPoint" />
            <mxPoint x="98" y="440" as="sourcePoint" />
            <mxPoint as="offset" />
          </mxGeometry>
        </mxCell>
        <mxCell id="pmki0bHwHVjzACw_J8O0-53" value="" style="edgeStyle=orthogonalEdgeStyle;html=1;align=left;spacingLeft=2;endArrow=block;rounded=0;" edge="1" parent="Suz31Z7P9t03JMRxkVpI-1">
          <mxGeometry relative="1" as="geometry">
            <mxPoint x="323" y="335" as="sourcePoint" />
            <Array as="points">
              <mxPoint x="303" y="335" />
              <mxPoint x="303" y="375" />
              <mxPoint x="323" y="375" />
            </Array>
            <mxPoint x="323" y="375" as="targetPoint" />
          </mxGeometry>
        </mxCell>
        <mxCell id="pmki0bHwHVjzACw_J8O0-54" value="&lt;div&gt;&lt;font style=&quot;font-size: 10px&quot;&gt;записывает реквизиты&lt;/font&gt;&lt;/div&gt;&lt;div&gt;&lt;font style=&quot;font-size: 10px&quot;&gt; талона&amp;nbsp; в карточку покупателя&lt;/font&gt;&lt;/div&gt;" style="text;html=1;align=center;verticalAlign=middle;resizable=0;points=[];autosize=1;" vertex="1" parent="Suz31Z7P9t03JMRxkVpI-1">
          <mxGeometry x="147" y="330" width="160" height="40" as="geometry" />
        </mxCell>
      </root>
    </mxGraphModel>
  </diagram>
  <diagram id="REBAkj5M8bMt8ncS_7nS" name="Состояние товара при маркировке">
    <mxGraphModel dx="1216" dy="587" grid="1" gridSize="10" guides="1" tooltips="1" connect="1" arrows="1" fold="1" page="1" pageScale="1" pageWidth="827" pageHeight="1169" math="0" shadow="0">
      <root>
        <mxCell id="uS2SPfv10FnM0PCq9-r5-0" />
        <mxCell id="uS2SPfv10FnM0PCq9-r5-1" parent="uS2SPfv10FnM0PCq9-r5-0" />
        <mxCell id="_ZcZ2FkdahJ3VyC9mqnW-0" value="&lt;div&gt;https://buhexpert8.ru/1s-buhgalteriya/markirovka/operatsii-markirovka&lt;/div&gt;&lt;div&gt;&lt;br&gt;&lt;/div&gt;" style="text;whiteSpace=wrap;html=1;" vertex="1" parent="uS2SPfv10FnM0PCq9-r5-1">
          <mxGeometry x="50" y="50" width="380" height="40" as="geometry" />
        </mxCell>
      </root>
    </mxGraphModel>
  </diagram>
</mxfile>
